<?xml version="1.0" encoding="UTF-8" standalone="no"?>
<svg
   width="49"
   height="41"
   viewBox="0 0 49 41"
   fill="none"
   version="1.1"
   id="svg13"
   sodipodi:docname="bag_icon.svg"
   inkscape:version="1.2.2 (732a01da63, 2022-12-09)"
   xmlns:inkscape="http://www.inkscape.org/namespaces/inkscape"
   xmlns:sodipodi="http://sodipodi.sourceforge.net/DTD/sodipodi-0.dtd"
   xmlns="http://www.w3.org/2000/svg"
   xmlns:svg="http://www.w3.org/2000/svg">
  <sodipodi:namedview
     id="namedview15"
     pagecolor="#ffffff"
     bordercolor="#000000"
     borderopacity="0.25"
     inkscape:showpageshadow="2"
     inkscape:pageopacity="0.0"
     inkscape:pagecheckerboard="0"
     inkscape:deskcolor="#d1d1d1"
     showgrid="false"
     inkscape:zoom="11.797101"
     inkscape:cx="27.591523"
     inkscape:cy="27.761057"
     inkscape:window-width="1920"
     inkscape:window-height="1001"
     inkscape:window-x="-9"
     inkscape:window-y="-9"
     inkscape:window-maximized="1"
     inkscape:current-layer="svg13" />
  <path
     d="m 1.2039715,38.939348 2.95473,-14.8116 1.6285697,-0.1468 -0.0045,-2.3845 -1.7893297,0.1913 3.4362297,-19.8011003 29.0965998,1.4409001 3.0773,1.2497 -1.6617,9.3032002 -0.1231,2.6381 0.0023,0.0888 -2.4318,4.0714 2.5394,0.4082 -4.2335,-0.6805 1.4126,15.9445 -0.266,0.1626 z m 2.78947,-17.1516 12.6606295,-1.4822 1.3506,-10.5601999 3.481,0.1853 -0.9775,10.0659999 12.2023,-1.28 3.5082,-13.7618002 2.3803,-0.6856 -2.0727,-0.8417 -3.7689,15.2112002 c -7.996,0.877 -17.4667,1.914 -28.7639295,3.149 z M 18.004671,9.7453481 l -2.1321,16.2539999 3.4908,-0.5662 2.1223,-15.5024999 z m 15.6905,10.7610999 5.3105,0.8536 2.0972,-2.275 -1.2943,-0.297 0.5215,-0.4376 2.0502,0.4299 -2.8253,15.7098 -4.4472,1.9608 z m 6.6975,-8.1049 -5.0034,8.3772 3.0949,0.4974 0.1148,-1.4731 8.821,-7.4015 -4.235,-2.6561999 0.0464,1.1331999 2.6528,1.523 -1.4427,0.9969 -3.0369,-3.6530999 z m -1.3029,-4.8470999 -3.5925,0.23 z m -24.971,16.3352999 0.5094,-3.2227 7.9863,-0.8057 -0.1131,2.9329 m -4.5335,-15.0097999 4.0339,0.3219 z M 6.9292712,34.367348 l 0.9013,-5.7168 4.4563998,0.9074 -1.2518,5.5354 z"
     fill="url(#paint0_linear_48_161)"
     id="path2"
     style="fill:url(#paint0_linear_48_161)" />
  <path
     d="m 3.9934415,21.787748 1.7893297,-0.1913 0.0045,2.3845 -1.6285697,0.1468 -2.95473,14.8116 33.6377995,-2.3258 0.266,-0.1626 M 3.9934415,21.787748 7.4296712,1.9866477 36.526271,3.4275478 M 3.9934415,21.787748 16.654071,20.305548 18.004671,9.7453481 M 3.9934415,21.787748 c 11.2972295,-1.235 20.7679295,-2.272 28.7639295,-3.149 l 3.7689,-15.2112002 m 0,0 3.0773,1.2497 -1.6617,9.3032002 -0.1231,2.6381 0.0023,0.0888 -2.4318,4.0714 m 1.137,-17.3512002 2.0727,0.8417 -2.3803,0.6856 -3.5082,13.7618002 -12.2023,1.28 0.9775,-10.0659999 m 13.9036,10.8480999 2.5394,0.4082 -4.2335,-0.6805 m 1.6941,0.2723 5.0034,-8.3772 1.0119,-2.6561999 3.0369,3.6530999 1.4427,-0.9969 -2.6528,-1.523 -0.0464,-1.1331999 4.235,2.6561999 -8.821,7.4015 -0.1148,1.4731 z m -1.6941,-0.2723 1.4126,15.9445 m -1.4126,-15.9445 5.3105,0.8536 2.0972,-2.275 -1.2943,-0.297 0.5215,-0.4376 2.0502,0.4299 -2.8253,15.7098 -4.4472,1.9608 m -17.1031,-26.7055999 3.481,0.1853 m -3.481,-0.1853 -2.1321,16.2539999 3.4908,-0.5662 2.1223,-15.5024999 m 17.6041,-2.3762 -3.5925,0.23 m -21.3785,16.1052999 0.5094,-3.2227 7.9863,-0.8057 -0.1131,2.9329 m -4.5335,-15.0097999 4.0339,0.3219 M 6.9292712,34.367348 l 0.9013,-5.7168 4.4563998,0.9074 -1.2518,5.5354 z"
     stroke="#2b2a29"
     stroke-width="0.5"
     stroke-miterlimit="22.9256"
     id="path4" />
  <defs
     id="defs11">
    <linearGradient
       id="paint0_linear_48_161"
       x1="29.3132"
       y1="16.820801"
       x2="29.2052"
       y2="78.320801"
       gradientUnits="userSpaceOnUse"
       gradientTransform="translate(-5.0012285,-14.834152)">
      <stop
         stop-color="#84266D"
         id="stop6" />
      <stop
         offset="1"
         stop-color="#BF3C3C"
         stop-opacity="0"
         id="stop8" />
    </linearGradient>
  </defs>
</svg>
