<svg width="48" height="39" viewBox="0 0 48 39" fill="none" xmlns="http://www.w3.org/2000/svg">
    <path d="M1 37.9527L3.95473 23.1411L5.58332 22.9943L5.57876 20.6098L3.78947 20.8011L7.22569 1L36.3223 2.44085L39.3996 3.69056L37.7379 12.9938L37.6148 15.6319L37.6171 15.7207L35.1853 19.7921L37.7247 20.2003L33.4912 19.5198L34.9038 35.4643L34.6378 35.6269L1 37.9527ZM3.78947 20.8011L16.4501 19.3189L17.8007 8.75873L21.2817 8.94399L20.3042 19.01L32.5065 17.73L36.0147 3.96818L38.395 3.28256L36.3223 2.44085L32.5534 17.6521C24.5574 18.5291 15.0867 19.5661 3.78947 20.8011ZM17.8007 8.75873L15.6686 25.0127L19.1594 24.4465L21.2817 8.94399L17.8007 8.75873ZM33.4912 19.5198L38.8017 20.3734L40.8989 18.0984L39.6046 17.8014L40.1261 17.3638L42.1763 17.7937L39.351 33.5035L34.9038 35.4643L33.4912 19.5198ZM40.1887 11.4149L35.1853 19.7921L38.2802 20.2895L38.395 18.8164L47.216 11.4149L42.981 8.75873L43.0274 9.89191L45.6802 11.4149L44.2375 12.4118L41.2006 8.75873L40.1887 11.4149ZM38.8858 6.56775L35.2933 6.79779L38.8858 6.56775ZM13.9148 22.9031L14.4242 19.6804L22.4105 18.8747L22.2974 21.8076M17.7639 6.79779L21.7978 7.11967L17.7639 6.79779ZM6.72533 33.3807L7.6266 27.6639L12.083 28.5713L10.8312 34.1067L6.72533 33.3807Z" fill="url(#paint0_linear_146_211)"/>
    <path d="M3.78947 20.8011L5.57876 20.6098L5.58332 22.9943L3.95473 23.1411L1 37.9527L34.6378 35.6269L34.9038 35.4643M3.78947 20.8011L7.22569 1L36.3223 2.44085M3.78947 20.8011L16.4501 19.3189L17.8007 8.75873M3.78947 20.8011C15.0867 19.5661 24.5574 18.5291 32.5534 17.6521L36.3223 2.44085M36.3223 2.44085L39.3996 3.69056L37.7379 12.9938L37.6148 15.6319L37.6171 15.7207L35.1853 19.7921M36.3223 2.44085L38.395 3.28256L36.0147 3.96818L32.5065 17.73L20.3042 19.01L21.2817 8.94399M35.1853 19.7921L37.7247 20.2003L33.4912 19.5198M35.1853 19.7921L40.1887 11.4149L41.2006 8.75873L44.2375 12.4118L45.6802 11.4149L43.0274 9.89191L42.981 8.75873L47.216 11.4149L38.395 18.8164L38.2802 20.2895L35.1853 19.7921ZM33.4912 19.5198L34.9038 35.4643M33.4912 19.5198L38.8017 20.3734L40.8989 18.0984L39.6046 17.8014L40.1261 17.3638L42.1763 17.7937L39.351 33.5035L34.9038 35.4643M17.8007 8.75873L21.2817 8.94399M17.8007 8.75873L15.6686 25.0127L19.1594 24.4465L21.2817 8.94399M38.8858 6.56775L35.2933 6.79779M13.9148 22.9031L14.4242 19.6804L22.4105 18.8747L22.2974 21.8076M17.7639 6.79779L21.7978 7.11967M6.72533 33.3807L7.6266 27.6639L12.083 28.5713L10.8312 34.1067L6.72533 33.3807Z" stroke="#2B2A29" stroke-width="0.5" stroke-miterlimit="22.9256"/>
    <defs>
        <linearGradient id="paint0_linear_146_211" x1="24.108" y1="1" x2="24" y2="62.5" gradientUnits="userSpaceOnUse">
            <stop stop-color="#282684"/>
            <stop offset="1" stop-color="#BF3C3C" stop-opacity="0"/>
        </linearGradient>
    </defs>
</svg>

