<svg width="36" height="46" viewBox="0 0 36 46" fill="none" xmlns="http://www.w3.org/2000/svg">
    <path d="M8.60431 1.52631L8.77595 36.4973L8.60431 1.52631ZM1.91563 4.68844C0.895868 5.64677 0.978841 6.52317 1.02244 11.7617C1.06613 17 1.07044 26.6007 1.07288 31.9928C1.07532 37.385 1.07597 38.5687 1.0763 39.4662C1.07662 40.3637 1.07695 40.975 1.73008 41.2664C2.38338 41.5577 3.68941 41.5291 9.33351 41.5363L9.75537 41.5369V37.9787H12.73V41.5432C18.3926 41.5574 25.8494 41.5862 29.9289 41.5862C34.8984 41.5862 34.8556 41.5435 34.8556 41.2808C34.8556 41.0181 34.8984 40.5357 34.8751 34.1131C34.8519 27.6905 34.7623 15.3279 34.9154 8.82298C35.0686 2.31818 35.464 1.67118 31.2033 1.32834C26.9425 0.985412 18.0254 0.946649 13.2455 1.05097C8.4657 1.1552 7.82314 1.40269 6.44048 2.04635C5.05791 2.69009 2.9354 3.73019 1.91563 4.68844ZM1.91913 40.4787L9.75537 40.4386L1.91913 40.4787ZM12.73 40.4233L34.8713 40.3097L12.73 40.4233ZM9.75537 37.9787H12.73V40.4233V40.4234V45L11.2426 44.0598L9.75537 45V40.4386V37.9787ZM4.47546 41.523C-0.859602 41.4705 0.573734 39.7369 8.77595 36.4973L4.47546 41.523ZM8.77595 36.4973L34.9231 36.6211L8.77595 36.4973Z" fill="url(#paint0_linear_146_191)"/>
    <path d="M8.60431 1.52631L8.77595 36.4973M8.77595 36.4973C0.573734 39.7369 -0.859602 41.4705 4.47546 41.523M8.77595 36.4973L34.9231 36.6211M9.75537 37.9787V41.5369L9.33351 41.5363C3.68941 41.5291 2.38338 41.5577 1.73008 41.2664C1.07695 40.975 1.07662 40.3637 1.0763 39.4662C1.07597 38.5687 1.07532 37.385 1.07288 31.9928C1.07044 26.6007 1.06613 17 1.02244 11.7617C0.978841 6.52317 0.895868 5.64677 1.91563 4.68844C2.9354 3.73019 5.05791 2.69009 6.44048 2.04635C7.82314 1.40269 8.4657 1.1552 13.2455 1.05097C18.0254 0.946649 26.9425 0.985412 31.2033 1.32834C35.464 1.67118 35.0686 2.31818 34.9154 8.82298C34.7623 15.3279 34.8519 27.6905 34.8751 34.1131C34.8984 40.5357 34.8556 41.0181 34.8556 41.2808C34.8556 41.5435 34.8984 41.5862 29.9289 41.5862C25.8494 41.5862 18.3926 41.5574 12.73 41.5432V37.9787M9.75537 37.9787H12.73M9.75537 37.9787V40.4386M12.73 37.9787V40.4233M1.91913 40.4787L9.75537 40.4386M9.75537 40.4386V45L11.2426 44.0598L12.73 45V40.4234V40.4233M12.73 40.4233L34.8713 40.3097" stroke="#2B2A29" stroke-width="0.5" stroke-miterlimit="22.9256"/>
    <path d="M16.0173 4.04669H27.6816C27.6816 5.9855 29.2517 7.55729 31.1884 7.55729V30.4662C29.2517 30.4662 27.6816 32.038 27.6816 33.9768H16.0173C16.0173 32.038 14.4473 30.4662 12.5105 30.4662V7.55729C14.4473 7.55729 16.0173 5.9855 16.0173 4.04669Z" fill="url(#paint1_linear_146_191)" stroke="#2B2A29" stroke-width="0.5" stroke-miterlimit="22.9256"/>
    <path d="M28.1235 18.7572C28.4057 19.127 28.3959 19.1387 28.2342 19.2524C28.0726 19.3662 27.7591 19.582 27.5964 19.6889C27.4338 19.7959 27.422 19.7939 27.178 19.4016C26.934 19.0092 26.4578 18.2264 26.2217 17.8233C25.9855 17.4202 25.9894 17.3966 26.1002 17.3093C26.2109 17.222 26.4285 17.071 26.545 16.9974C26.6616 16.9239 26.6773 16.9278 26.9723 17.2937C27.2672 17.6595 27.8413 18.3874 28.1235 18.7572ZM14.1538 13.2617C13.7721 12.9959 13.7779 12.9818 13.897 12.824C14.0161 12.6661 14.2488 12.3647 14.371 12.2131C14.4932 12.0615 14.5049 12.0598 14.8571 12.3586C15.2092 12.6575 15.9018 13.257 16.2498 13.5685C16.5977 13.8801 16.6012 13.9037 16.5224 14.0206C16.4436 14.1377 16.2827 14.3482 16.1941 14.4539C16.1056 14.5596 16.0895 14.5606 15.6969 14.3026C15.3043 14.0446 14.5354 13.5274 14.1538 13.2617ZM15.9404 11.3705C15.6582 11.0007 15.668 10.989 15.8297 10.8752C15.9913 10.7614 16.3049 10.5456 16.4675 10.4387C16.6302 10.3318 16.6419 10.3337 16.886 10.7261C17.1299 11.1185 17.6061 11.9012 17.8422 12.3043C18.0784 12.7075 18.0745 12.731 17.9637 12.8183C17.853 12.9056 17.6355 13.0567 17.5189 13.1302C17.4023 13.2038 17.3866 13.1999 17.0917 12.834C16.7967 12.4682 16.2226 11.7403 15.9404 11.3705ZM18.5295 10.0716C18.4153 9.62054 18.4289 9.61362 18.6222 9.57265C18.8156 9.53161 19.1887 9.45669 19.3802 9.42232C19.5717 9.38812 19.5818 9.39455 19.652 9.85132C19.7221 10.3081 19.8525 11.2153 19.9113 11.6789C19.97 12.1425 19.9571 12.1626 19.8211 12.1993C19.685 12.236 19.4256 12.2892 19.2895 12.311C19.1534 12.3327 19.1406 12.323 19.0131 11.8704C18.8856 11.418 18.6437 10.5227 18.5295 10.0716ZM20.9677 9.66093C20.9393 9.19642 20.9539 9.19211 21.1515 9.18787C21.3491 9.18356 21.7295 9.17932 21.9241 9.18128C22.1187 9.18331 22.1273 9.19153 22.1115 9.65335C22.0957 10.1153 22.0553 11.0308 22.0269 11.4973C21.9985 11.9638 21.9821 11.9812 21.8416 11.9918C21.7011 12.0026 21.4363 12.0067 21.2986 12.0027C21.1608 11.9987 21.1499 11.9867 21.1088 11.5184C21.0676 11.05 20.9961 10.1254 20.9677 9.66093ZM26.1097 19.9314C26.3186 20.3471 26.3068 20.3568 26.1268 20.4386C25.947 20.5205 25.5989 20.6744 25.4193 20.7494C25.2397 20.8243 25.2284 20.8202 25.0613 20.3894C24.8941 19.9586 24.571 19.1011 24.4134 18.6611C24.256 18.2212 24.2642 18.1988 24.3891 18.1335C24.5141 18.0682 24.7558 17.9602 24.884 17.9094C25.0122 17.8588 25.0269 17.8655 25.249 18.2798C25.4712 18.694 25.9008 19.5156 26.1097 19.9314Z" fill="#C8ACAC" stroke="#2B2A29" stroke-width="0.2" stroke-miterlimit="22.9256"/>
    <path d="M27.9601 27.9409H15.7286V28.4402H27.9601V27.9409Z" fill="url(#paint2_linear_146_191)" fill-opacity="0.5" stroke="#2B2A29" stroke-width="0.5" stroke-miterlimit="22.9256"/>
    <path d="M27.9601 24.9197H15.7286V25.419H27.9601V24.9197Z" fill="url(#paint3_linear_146_191)" fill-opacity="0.5" stroke="#2B2A29" stroke-width="0.5" stroke-miterlimit="22.9256"/>
    <path d="M27.3341 15.2721C23.5934 11.7921 19.9343 11.7772 16.3466 15.2721H27.3341ZM27.2313 15.4918V15.0524V15.4918ZM16.4386 15.4918V15.0524V15.4918ZM27.3341 15.2721C23.5934 18.7521 19.9343 18.7669 16.3466 15.2721H27.3341Z" fill="#B7B7B7"/>
    <path d="M27.2313 15.4918V15.0524M16.4386 15.4918V15.0524M27.3341 15.2721C23.5934 11.7921 19.9343 11.7772 16.3466 15.2721C19.9343 18.7669 23.5934 18.7521 27.3341 15.2721Z" stroke="#2B2A29" stroke-width="0.5" stroke-miterlimit="22.9256"/>
    <path d="M21.8404 17.1165C22.8579 17.1165 23.6827 16.2907 23.6827 15.2721C23.6827 14.2535 22.8579 13.4278 21.8404 13.4278C20.8229 13.4278 19.998 14.2535 19.998 15.2721C19.998 16.2907 20.8229 17.1165 21.8404 17.1165Z" fill="black" stroke="#2B2A29" stroke-width="0.5" stroke-miterlimit="22.9256"/>
    <defs>
        <linearGradient id="paint0_linear_146_191" x1="22.5" y1="8" x2="22" y2="72" gradientUnits="userSpaceOnUse">
            <stop offset="0.0159998" stop-color="#481885"/>
            <stop offset="0.9998" stop-color="#BF3C3C" stop-opacity="0.0440002"/>
        </linearGradient>
        <linearGradient id="paint1_linear_146_191" x1="22" y1="-8.00003" x2="23.2297" y2="47.517" gradientUnits="userSpaceOnUse">
            <stop stop-color="#1B1985"/>
            <stop offset="0.706" stop-color="#BF3C3C" stop-opacity="0.04"/>
        </linearGradient>
        <linearGradient id="paint2_linear_146_191" x1="22.0222" y1="28.2344" x2="22.022" y2="28.7115" gradientUnits="userSpaceOnUse">
            <stop stop-color="#3B4D8F"/>
            <stop offset="1" stop-color="#BF3C3C" stop-opacity="0"/>
        </linearGradient>
        <linearGradient id="paint3_linear_146_191" x1="22.0222" y1="25.2133" x2="22.022" y2="25.6903" gradientUnits="userSpaceOnUse">
            <stop stop-color="#3B4D8F"/>
            <stop offset="1" stop-color="#BF3C3C" stop-opacity="0"/>
        </linearGradient>
    </defs>
</svg>
