<svg width="36" height="46" viewBox="0 0 36 46" fill="none" xmlns="http://www.w3.org/2000/svg">
<path d="M8.80951 1.34711L8.98115 36.3181L8.80951 1.34711ZM2.12083 4.50924C1.10107 5.46757 1.18404 6.34397 1.22764 11.5825C1.27133 16.8208 1.27564 26.4215 1.27808 31.8136C1.28052 37.2058 1.28117 38.3895 1.2815 39.287C1.28182 40.1845 1.28215 40.7958 1.93528 41.0872C2.58858 41.3785 3.89461 41.3499 9.53871 41.3571L9.96057 41.3577V37.7995H12.9352V41.364C18.5978 41.3782 26.0546 41.407 30.1341 41.407C35.1036 41.407 35.0608 41.3643 35.0608 41.1016C35.0608 40.8389 35.1036 40.3565 35.0803 33.9339C35.0571 27.5113 34.9675 15.1487 35.1206 8.64378C35.2738 2.13898 35.6692 1.49198 31.4085 1.14914C27.1477 0.806213 18.2306 0.767449 13.4507 0.871768C8.6709 0.976005 8.02834 1.22349 6.64568 1.86715C5.26311 2.5109 3.1406 3.55099 2.12083 4.50924ZM2.12433 40.2995L9.96057 40.2594L2.12433 40.2995ZM12.9352 40.2441L35.0765 40.1305L12.9352 40.2441ZM9.96057 37.7995H12.9352V40.2441V40.2442V44.8208L11.4478 43.8806L9.96057 44.8208V40.2594V37.7995ZM4.68066 41.3438C-0.654402 41.2913 0.778935 39.5577 8.98115 36.3181L4.68066 41.3438ZM8.98115 36.3181L35.1283 36.4419L8.98115 36.3181Z" fill="url(#paint0_linear_48_141)"/>
<path d="M8.80951 1.34711L8.98115 36.3181M8.98115 36.3181C0.778935 39.5577 -0.654402 41.2913 4.68066 41.3438M8.98115 36.3181L35.1283 36.4419M9.96057 37.7995V41.3577L9.53871 41.3571C3.89461 41.3499 2.58858 41.3785 1.93528 41.0872C1.28215 40.7958 1.28182 40.1845 1.2815 39.287C1.28117 38.3895 1.28052 37.2058 1.27808 31.8136C1.27564 26.4215 1.27133 16.8208 1.22764 11.5825C1.18404 6.34397 1.10107 5.46757 2.12083 4.50924C3.1406 3.55099 5.26311 2.5109 6.64568 1.86715C8.02834 1.22349 8.6709 0.976005 13.4507 0.871768C18.2306 0.767449 27.1477 0.806213 31.4085 1.14914C35.6692 1.49198 35.2738 2.13898 35.1206 8.64378C34.9675 15.1487 35.0571 27.5113 35.0803 33.9339C35.1036 40.3565 35.0608 40.8389 35.0608 41.1016C35.0608 41.3643 35.1036 41.407 30.1341 41.407C26.0546 41.407 18.5978 41.3782 12.9352 41.364V37.7995M9.96057 37.7995H12.9352M9.96057 37.7995V40.2595M12.9352 37.7995V40.2441M2.12433 40.2995L9.96057 40.2595M9.96057 40.2595V44.8208L11.4478 43.8806L12.9352 44.8208V40.2442V40.2441M12.9352 40.2441L35.0765 40.1305" stroke="#2B2A29" stroke-width="0.5" stroke-miterlimit="22.9256"/>
<path d="M16.2225 3.86752H27.8869C27.8869 5.80633 29.4569 7.37812 31.3936 7.37812V30.2871C29.4569 30.2871 27.8869 31.8588 27.8869 33.7977H16.2225C16.2225 31.8588 14.6525 30.2871 12.7157 30.2871V7.37812C14.6525 7.37812 16.2225 5.80633 16.2225 3.86752Z" fill="url(#paint1_linear_48_141)" stroke="#2B2A29" stroke-width="0.5" stroke-miterlimit="22.9256"/>
<path d="M28.3287 18.578C28.6109 18.9478 28.6012 18.9595 28.4394 19.0732C28.2778 19.187 27.9643 19.4028 27.8016 19.5097C27.639 19.6167 27.6272 19.6147 27.3832 19.2224C27.1393 18.83 26.6631 18.0472 26.4269 17.6441C26.1908 17.241 26.1947 17.2174 26.3054 17.1301C26.4162 17.0428 26.6337 16.8918 26.7503 16.8182C26.8668 16.7447 26.8825 16.7486 27.1775 17.1145C27.4724 17.4803 28.0465 18.2082 28.3287 18.578ZM14.359 13.0825C13.9773 12.8167 13.9831 12.8026 14.1023 12.6448C14.2214 12.4869 14.454 12.1855 14.5762 12.0339C14.6984 11.8823 14.7102 11.8806 15.0623 12.1794C15.4145 12.4783 16.107 13.0778 16.455 13.3893C16.8029 13.7009 16.8064 13.7245 16.7277 13.8414C16.6488 13.9585 16.4879 14.169 16.3994 14.2747C16.3108 14.3804 16.2947 14.3814 15.9022 14.1234C15.5096 13.8654 14.7406 13.3482 14.359 13.0825ZM16.1456 11.1913C15.8634 10.8215 15.8732 10.8098 16.0349 10.696C16.1966 10.5822 16.5101 10.3664 16.6728 10.2595C16.8355 10.1526 16.8472 10.1545 17.0912 10.5469C17.3352 10.9393 17.8114 11.722 18.0474 12.1251C18.2836 12.5283 18.2797 12.5518 18.169 12.6391C18.0583 12.7264 17.8407 12.8775 17.7242 12.951C17.6075 13.0246 17.5918 13.0207 17.2969 12.6548C17.002 12.289 16.4278 11.5611 16.1456 11.1913ZM18.7347 9.89241C18.6205 9.44134 18.6341 9.43442 18.8275 9.39346C19.0208 9.35241 19.3939 9.27749 19.5854 9.24312C19.777 9.20892 19.787 9.21535 19.8573 9.67212C19.9274 10.1289 20.0578 11.0361 20.1165 11.4997C20.1752 11.9633 20.1624 11.9834 20.0263 12.0201C19.8902 12.0568 19.6309 12.1101 19.4948 12.1318C19.3587 12.1535 19.3458 12.1438 19.2184 11.6912C19.0909 11.2388 18.849 10.3435 18.7347 9.89241ZM21.173 9.48173C21.1445 9.01722 21.1591 9.01291 21.3567 9.00867C21.5543 9.00436 21.9348 9.00012 22.1294 9.00208C22.3239 9.00411 22.3326 9.01234 22.3168 9.47415C22.3009 9.93606 22.2605 10.8516 22.2321 11.3181C22.2037 11.7846 22.1874 11.802 22.0468 11.8126C21.9063 11.8234 21.6415 11.8275 21.5038 11.8235C21.366 11.8195 21.3552 11.8075 21.314 11.3392C21.2729 10.8709 21.2013 9.94615 21.173 9.48173ZM26.3149 19.7522C26.5238 20.1679 26.512 20.1776 26.3321 20.2594C26.1522 20.3413 25.8041 20.4952 25.6245 20.5702C25.4449 20.6451 25.4337 20.641 25.2665 20.2102C25.0993 19.7794 24.7762 18.9219 24.6187 18.4819C24.4612 18.042 24.4695 18.0196 24.5943 17.9543C24.7194 17.889 24.961 17.781 25.0892 17.7302C25.2175 17.6796 25.2321 17.6863 25.4543 18.1006C25.6764 18.5148 26.106 19.3364 26.3149 19.7522Z" fill="#C8ACAC" stroke="#2B2A29" stroke-width="0.2" stroke-miterlimit="22.9256"/>
<path d="M28.1653 27.7617H15.9338V28.261H28.1653V27.7617Z" fill="url(#paint2_linear_48_141)" fill-opacity="0.5" stroke="#2B2A29" stroke-width="0.5" stroke-miterlimit="22.9256"/>
<path d="M28.1653 24.7405H15.9338V25.2398H28.1653V24.7405Z" fill="url(#paint3_linear_48_141)" fill-opacity="0.5" stroke="#2B2A29" stroke-width="0.5" stroke-miterlimit="22.9256"/>
<path d="M27.5393 15.0929C23.7987 11.6129 20.1395 11.598 16.5518 15.0929H27.5393ZM27.4365 15.3126V14.8733V15.3126ZM16.6439 15.3126V14.8733V15.3126ZM27.5393 15.0929C23.7987 18.5729 20.1395 18.5878 16.5518 15.0929H27.5393Z" fill="#B7B7B7"/>
<path d="M27.4365 15.3126V14.8733M16.6439 15.3126V14.8733M27.5393 15.0929C23.7987 11.6129 20.1395 11.598 16.5518 15.0929C20.1395 18.5878 23.7987 18.5729 27.5393 15.0929Z" stroke="#2B2A29" stroke-width="0.5" stroke-miterlimit="22.9256"/>
<path d="M22.0456 16.9373C23.0631 16.9373 23.8879 16.1115 23.8879 15.0929C23.8879 14.0743 23.0631 13.2486 22.0456 13.2486C21.0281 13.2486 20.2032 14.0743 20.2032 15.0929C20.2032 16.1115 21.0281 16.9373 22.0456 16.9373Z" fill="black" stroke="#2B2A29" stroke-width="0.5" stroke-miterlimit="22.9256"/>
<path d="M2.01885 40.573C2.19508 40.6324 2.35624 40.5478 2.37883 40.3839C2.40141 40.22 2.27686 40.0389 2.10064 39.9795C1.92441 39.92 1.76325 40.0046 1.74066 40.1685C1.71808 40.3324 1.84263 40.5135 2.01885 40.573Z" fill="url(#paint4_linear_48_141)" fill-opacity="0.5"/>
<defs>
<linearGradient id="paint0_linear_48_141" x1="22.7052" y1="7.8208" x2="22.2052" y2="71.8208" gradientUnits="userSpaceOnUse">
<stop offset="0.0159998" stop-color="#851869"/>
<stop offset="0.9998" stop-color="#BF3C3C" stop-opacity="0.0440002"/>
</linearGradient>
<linearGradient id="paint1_linear_48_141" x1="22.2052" y1="-8.1792" x2="23.4349" y2="47.3379" gradientUnits="userSpaceOnUse">
<stop stop-color="#85196A"/>
<stop offset="0.706" stop-color="#BF3C3C" stop-opacity="0.04"/>
</linearGradient>
<linearGradient id="paint2_linear_48_141" x1="22.2274" y1="28.0552" x2="22.2271" y2="28.5323" gradientUnits="userSpaceOnUse">
<stop stop-color="#8F3B7B"/>
<stop offset="1" stop-color="#BF3C3C" stop-opacity="0"/>
</linearGradient>
<linearGradient id="paint3_linear_48_141" x1="22.2274" y1="25.0341" x2="22.2271" y2="25.5111" gradientUnits="userSpaceOnUse">
<stop stop-color="#8F3B7B"/>
<stop offset="1" stop-color="#BF3C3C" stop-opacity="0"/>
</linearGradient>
<linearGradient id="paint4_linear_48_141" x1="2.06184" y1="40.3315" x2="1.87624" y2="40.8609" gradientUnits="userSpaceOnUse">
<stop stop-color="#8F3B7B"/>
<stop offset="1" stop-color="#BF3C3C" stop-opacity="0"/>
</linearGradient>
</defs>
</svg>
