<svg width="31" height="45" viewBox="0 0 31 45" fill="none" xmlns="http://www.w3.org/2000/svg">
<path d="M1.44245 14.9868C1.08879 18.1354 1.12891 21.7965 1 25.0108L2.20902 25.4776L1.2408 26.4515L2.01383 36.1796L14.4626 43.73C14.4626 43.73 10.921 29.0427 10.4407 28.9741C9.96038 28.9055 4.91244 26.9933 4.91244 26.9933C4.91244 26.9933 4.44138 22.5199 4.87084 22.5756C5.3003 22.6314 12.8886 25.6825 12.8886 25.6825L14.4626 31.9164L15.514 31.8422L16.5654 31.9164L18.1392 25.6825C18.1392 25.6825 25.7277 22.6314 26.1571 22.5756C26.5865 22.5199 26.1155 26.9933 26.1155 26.9933C26.1155 26.9933 21.0675 28.9055 20.5873 28.9741C20.107 29.0427 16.5654 43.73 16.5654 43.73L29.0141 36.1796L29.787 26.4515L28.7701 25.8119L30.028 25.0108C29.899 21.7965 29.939 18.1354 29.5854 14.9868L15.514 7.53741L1.44245 14.9868ZM3.13152 14.0928L2.63675 13.608L5.66235 10.21L3.93788 7.95022L6.60965 9.14621L9.59688 5.79145L10.0702 10.4193L3.13152 14.0928ZM12.3136 9.3013L12.0497 4.04393H9.48061L10.0702 10.4193L12.3136 9.3013ZM11.9121 1H15.5138H19.1157L18.7142 9.3013L15.5138 7.64167L12.3135 9.3013L11.9121 1ZM27.8964 14.0928L28.3912 13.608L25.3656 10.21L27.0901 7.95022L24.4182 9.14621L21.4311 5.79145L20.9576 10.4193L27.8964 14.0928ZM18.7142 9.3013L18.978 4.04393H21.5473L20.9576 10.4193L18.7142 9.3013Z" fill="url(#paint0_linear_146_188)"/>
<path d="M10.0702 10.4193L9.59688 5.79145L6.60965 9.14621L3.93788 7.95022L5.66235 10.21L2.63675 13.608L3.13152 14.0928L10.0702 10.4193ZM10.0702 10.4193L9.48061 4.04393H12.0497L12.3136 9.30131L10.0702 10.4193ZM18.7142 9.30131L19.1157 1H15.5138H11.9121L12.3135 9.30131L15.5138 7.64167L18.7142 9.30131ZM18.7142 9.30131L18.978 4.04393H21.5473L20.9576 10.4193M18.7142 9.30131L20.9576 10.4193M20.9576 10.4193L21.4311 5.79145L24.4182 9.14621L27.0901 7.95022L25.3656 10.21L28.3912 13.608L27.8964 14.0928L20.9576 10.4193ZM1.44245 14.9868C1.08879 18.1354 1.12891 21.7965 1 25.0108L2.20902 25.4776L1.2408 26.4515L2.01383 36.1796L14.4626 43.73C14.4626 43.73 10.921 29.0427 10.4407 28.9741C9.96038 28.9055 4.91244 26.9933 4.91244 26.9933C4.91244 26.9933 4.44138 22.5199 4.87084 22.5756C5.3003 22.6314 12.8886 25.6825 12.8886 25.6825L14.4626 31.9164L15.514 31.8422L16.5654 31.9164L18.1392 25.6825C18.1392 25.6825 25.7277 22.6314 26.1571 22.5756C26.5865 22.5199 26.1155 26.9933 26.1155 26.9933C26.1155 26.9933 21.0675 28.9055 20.5873 28.9741C20.107 29.0427 16.5654 43.73 16.5654 43.73L29.0141 36.1796L29.787 26.4515L28.7701 25.8119L30.028 25.0108C29.899 21.7965 29.939 18.1354 29.5854 14.9868L15.514 7.53741L1.44245 14.9868Z" stroke="#2B2A29" stroke-width="0.5" stroke-miterlimit="22.9256"/>
<defs>
<linearGradient id="paint0_linear_146_188" x1="15.514" y1="1" x2="18.5" y2="134" gradientUnits="userSpaceOnUse">
<stop stop-color="#2D1785"/>
<stop offset="0.5" stop-color="#BF3C3C" stop-opacity="0.0204204"/>
</linearGradient>
</defs>
</svg>
