<?xml version="1.0" encoding="UTF-8" standalone="no"?>
<svg
   width="38"
   height="47"
   viewBox="0 0 38 47"
   fill="none"
   version="1.1"
   id="svg32"
   sodipodi:docname="character_icon.svg"
   inkscape:version="1.2.2 (732a01da63, 2022-12-09)"
   xmlns:inkscape="http://www.inkscape.org/namespaces/inkscape"
   xmlns:sodipodi="http://sodipodi.sourceforge.net/DTD/sodipodi-0.dtd"
   xmlns="http://www.w3.org/2000/svg"
   xmlns:svg="http://www.w3.org/2000/svg">
  <sodipodi:namedview
     id="namedview34"
     pagecolor="#ffffff"
     bordercolor="#000000"
     borderopacity="0.25"
     inkscape:showpageshadow="2"
     inkscape:pageopacity="0.0"
     inkscape:pagecheckerboard="0"
     inkscape:deskcolor="#d1d1d1"
     showgrid="false"
     inkscape:zoom="12.523077"
     inkscape:cx="34.057125"
     inkscape:cy="21.52027"
     inkscape:window-width="1920"
     inkscape:window-height="1001"
     inkscape:window-x="-9"
     inkscape:window-y="-9"
     inkscape:window-maximized="1"
     inkscape:current-layer="svg32" />
  <g
     filter="url(#filter0_d_48_138)"
     id="g6"
     transform="matrix(1.0033014,0,0,0.99327315,-4.6218726,-9.7341379)">
    <path
       d="M 9.64765,25.8076 C 9.29399,28.9562 9.33411,32.6173 9.2052,35.8316 l 1.209,0.4668 -0.9682,0.9739 0.773,9.7281 12.4488,7.5504 c 0,0 -3.5416,-14.6873 -4.0219,-14.7559 -0.4803,-0.0686 -5.5283,-1.9808 -5.5283,-1.9808 0,0 -0.471,-4.4734 -0.0416,-4.4177 0.4295,0.0558 8.0178,3.1069 8.0178,3.1069 l 1.574,6.2339 1.0514,-0.0742 1.0514,0.0742 1.5738,-6.2339 c 0,0 7.5885,-3.0511 8.0179,-3.1069 0.4294,-0.0557 -0.0416,4.4177 -0.0416,4.4177 0,0 -5.048,1.9122 -5.5282,1.9808 -0.4803,0.0686 -4.0219,14.7559 -4.0219,14.7559 l 12.4487,-7.5504 0.7729,-9.7281 -1.0169,-0.6396 1.2579,-0.8011 c -0.129,-3.2143 -0.089,-6.8754 -0.4426,-10.024 L 23.7192,18.3582 Z m 1.68905,-0.894 -0.4948,-0.4848 3.0256,-3.398 -1.7244,-2.2598 2.6717,1.196 2.9873,-3.3547 0.4733,4.6278 z m 9.1821,-4.7915 -0.2639,-5.2574 h -2.5691 l 0.5896,6.3754 z m -0.4015,-8.3013 h 3.6017 3.6019 l -0.4015,8.3013 -3.2004,-1.6596 -3.2003,1.6596 z m 15.9843,13.0928 0.4948,-0.4848 -3.0256,-3.398 1.7245,-2.2598 -2.6719,1.196 -2.9871,-3.3547 -0.4735,4.6278 z m -9.1822,-4.7915 0.2638,-5.2574 h 2.5693 l -0.5897,6.3754 z"
       fill="url(#paint0_linear_48_138)"
       id="path2"
       style="fill:url(#paint0_linear_48_138)" />
    <path
       d="m 18.2754,21.2401 -0.4733,-4.6278 -2.9873,3.3547 -2.6717,-1.196 1.7244,2.2598 -3.0256,3.398 0.4948,0.4848 z m 0,0 -0.5896,-6.3754 h 2.5691 l 0.2639,5.2574 z m 8.644,-1.118 0.4015,-8.3013 H 23.719 20.1173 l 0.4014,8.3013 3.2003,-1.6596 z m 0,0 0.2638,-5.2574 h 2.5693 l -0.5897,6.3754 m -2.2434,-1.118 2.2434,1.118 m 0,0 0.4735,-4.6278 2.9871,3.3547 2.6719,-1.196 -1.7245,2.2598 3.0256,3.398 -0.4948,0.4848 z M 9.64765,25.8076 C 9.29399,28.9562 9.33411,32.6173 9.2052,35.8316 l 1.209,0.4668 -0.9682,0.9739 0.773,9.7281 12.4488,7.5504 c 0,0 -3.5416,-14.6873 -4.0219,-14.7559 -0.4803,-0.0686 -5.5283,-1.9808 -5.5283,-1.9808 0,0 -0.471,-4.4734 -0.0416,-4.4177 0.4295,0.0558 8.0178,3.1069 8.0178,3.1069 l 1.574,6.2339 1.0514,-0.0742 1.0514,0.0742 1.5738,-6.2339 c 0,0 7.5885,-3.0511 8.0179,-3.1069 0.4294,-0.0557 -0.0416,4.4177 -0.0416,4.4177 0,0 -5.048,1.9122 -5.5282,1.9808 -0.4803,0.0686 -4.0219,14.7559 -4.0219,14.7559 l 12.4487,-7.5504 0.7729,-9.7281 -1.0169,-0.6396 1.2579,-0.8011 c -0.129,-3.2143 -0.089,-6.8754 -0.4426,-10.024 L 23.7192,18.3582 Z"
       stroke="#2b2a29"
       stroke-width="0.5"
       stroke-miterlimit="22.9256"
       id="path4" />
  </g>
  <defs
     id="defs30">
    <filter
       id="filter0_d_48_138"
       x="-3.7948"
       y="0.82080102"
       width="75"
       height="72"
       filterUnits="userSpaceOnUse"
       color-interpolation-filters="sRGB">
      <feFlood
         flood-opacity="0"
         result="BackgroundImageFix"
         id="feFlood8" />
      <feColorMatrix
         in="SourceAlpha"
         type="matrix"
         values="0 0 0 0 0 0 0 0 0 0 0 0 0 0 0 0 0 0 127 0"
         result="hardAlpha"
         id="feColorMatrix10" />
      <feOffset
         dy="4"
         id="feOffset12" />
      <feGaussianBlur
         stdDeviation="2"
         id="feGaussianBlur14" />
      <feComposite
         in2="hardAlpha"
         operator="out"
         id="feComposite16" />
      <feColorMatrix
         type="matrix"
         values="0 0 0 0 0 0 0 0 0 0 0 0 0 0 0 0 0 0 0.25 0"
         id="feColorMatrix18" />
      <feBlend
         mode="normal"
         in2="BackgroundImageFix"
         result="effect1_dropShadow_48_138"
         id="feBlend20" />
      <feBlend
         mode="normal"
         in="SourceGraphic"
         in2="effect1_dropShadow_48_138"
         result="shape"
         id="feBlend22" />
    </filter>
    <linearGradient
       id="paint0_linear_48_138"
       x1="23.7192"
       y1="11.8208"
       x2="26.7052"
       y2="144.821"
       gradientUnits="userSpaceOnUse">
      <stop
         stop-color="#851767"
         id="stop25" />
      <stop
         offset="0.5"
         stop-color="#BF3C3C"
         stop-opacity="0.0204204"
         id="stop27" />
    </linearGradient>
  </defs>
</svg>
