<svg width="228" height="159" viewBox="0 0 228 159" fill="none" xmlns="http://www.w3.org/2000/svg">
<g clip-path="url(#clip0_23_508)">
<mask id="mask0_23_508" style="mask-type:luminance" maskUnits="userSpaceOnUse" x="0" y="0" width="228" height="159">
<path d="M0.2052 0.820801H227.205V158.821H0.2052V0.820801Z" fill="white"/>
</mask>
<g mask="url(#mask0_23_508)">
<path d="M172.48 47.5213L114.8 16.4375C114.229 16.1297 113.524 16.128 112.952 16.4332L55.1055 47.2491C54.5327 47.5542 54.1787 48.1197 54.177 48.7327L54.0103 110.632C54.0088 111.245 54.3596 111.813 54.9307 112.12L112.61 143.204C113.181 143.512 113.886 143.514 114.459 143.208L172.305 112.393C172.878 112.087 173.232 111.522 173.233 110.909L173.4 49.0092C173.402 48.3963 173.051 47.8291 172.48 47.5213Z" fill="#4A0C0C" stroke="url(#paint0_linear_23_508)" stroke-width="5.12133" stroke-miterlimit="10"/>
</g>
<path d="M113.705 36.2371L75.0645 98.3492H152.346L113.705 36.2371Z" fill="url(#paint1_linear_23_508)"/>
<path d="M113.705 140.498L75.0645 100.286H152.346L113.705 140.498Z" fill="url(#paint2_linear_23_508)"/>
<path d="M154.623 101.038L117.157 139.507L170.22 110.556L154.623 101.038Z" fill="url(#paint3_linear_23_508)"/>
<path d="M155.588 98.7978L170.999 50.6321V108.751L155.588 98.7978Z" fill="url(#paint4_linear_23_508)"/>
<path d="M72.9534 101.038L110.419 139.507L57.3557 110.556L72.9534 101.038Z" fill="url(#paint5_linear_23_508)"/>
<path d="M114.982 33.2547L167.203 47.665L114.668 19.9663L114.982 33.2547Z" fill="url(#paint6_linear_23_508)"/>
<path d="M112.652 33.3593L59.7524 47.6652L112.818 19.9773L112.652 33.3593Z" fill="url(#paint7_linear_23_508)"/>
<path d="M71.9883 98.7978L56.5772 50.6321V108.751L71.9883 98.7978Z" fill="url(#paint8_linear_23_508)"/>
<path d="M58.1789 49.7559L73.1605 97.5262L111.875 35.4536L58.1789 49.7559Z" fill="url(#paint9_linear_23_508)"/>
<path d="M168.993 49.7559L154.011 97.5262L115.297 35.4536L168.993 49.7559Z" fill="url(#paint10_linear_23_508)"/>
<mask id="mask1_23_508" style="mask-type:luminance" maskUnits="userSpaceOnUse" x="0" y="0" width="228" height="159">
<path d="M0.2052 0.820801H227.205V158.821H0.2052V0.820801Z" fill="white"/>
</mask>
<g mask="url(#mask1_23_508)">
<path d="M97.2935 86.8305C97.9663 85.3456 99.5557 83.7735 102.061 82.1145C104.234 80.6705 105.641 79.6362 106.282 79.0115C107.263 78.0388 107.755 76.9736 107.755 75.8163C107.755 74.8742 107.473 74.0908 106.911 73.466C106.348 72.8413 105.542 72.5289 104.494 72.5289C103.059 72.5289 102.082 73.0256 101.564 74.019C101.266 74.5924 101.089 75.5039 101.034 76.7534H96.4493C96.5263 74.8587 96.8966 73.3278 97.5592 72.1602C98.8187 69.938 101.056 68.8267 104.27 68.8267C106.811 68.8267 108.833 69.4795 110.335 70.7853C111.837 72.0911 112.588 73.8192 112.588 75.97C112.588 77.6188 112.058 79.0832 110.996 80.363C110.3 81.2133 109.155 82.1606 107.563 83.2051L105.673 84.4493C104.49 85.2281 103.68 85.791 103.244 86.1393C102.808 86.4878 102.441 86.8921 102.143 87.3529H112.621V91.2088H96.1844C96.2284 89.611 96.5983 88.1518 97.2935 86.8305Z" fill="#4A0C0C"/>
<path d="M120.534 86.1623C120.986 87.5194 121.913 88.1978 123.315 88.1978C124.716 88.1978 125.635 87.5194 126.071 86.1623C126.506 84.8054 126.725 82.8469 126.725 80.2863C126.725 77.6036 126.506 75.6164 126.071 74.3261C125.635 73.0358 124.716 72.3906 123.315 72.3906C121.913 72.3906 120.986 73.0358 120.534 74.3261C120.081 75.6164 119.855 77.6036 119.855 80.2863C119.855 82.8469 120.081 84.8054 120.534 86.1623ZM129.745 71.776C130.975 73.7731 131.591 76.6102 131.591 80.2863C131.591 83.9631 130.975 86.7949 129.745 88.7814C128.515 90.7683 126.371 91.7617 123.315 91.7617C120.257 91.7617 118.114 90.7683 116.884 88.7814C115.653 86.7949 115.038 83.9631 115.038 80.2863C115.038 76.6102 115.653 73.7731 116.884 71.776C118.114 69.779 120.257 68.7806 123.315 68.7806C126.371 68.7806 128.515 69.779 129.745 71.776Z" fill="#4A0C0C"/>
<path d="M114.384 119.183C114.037 118.813 113.546 118.626 112.914 118.626C112.274 118.626 111.783 118.813 111.443 119.183C111.107 119.549 110.949 120.015 110.966 120.577C110.984 121.178 111.165 121.64 111.506 121.969C111.843 122.295 112.311 122.456 112.914 122.456C113.51 122.456 113.978 122.295 114.322 121.969C114.67 121.64 114.854 121.178 114.872 120.577C114.889 120.015 114.728 119.549 114.384 119.183ZM114.789 110.987C114.346 110.433 113.717 110.154 112.907 110.154C112.097 110.154 111.467 110.433 111.024 110.987C110.588 111.532 110.389 112.286 110.422 113.235C110.455 114.194 110.699 114.904 111.149 115.381C111.592 115.852 112.177 116.084 112.908 116.084C113.638 116.084 114.223 115.852 114.667 115.381C115.116 114.904 115.359 114.194 115.392 113.235C115.425 112.286 115.226 111.532 114.789 110.987ZM118.066 115.793C117.59 116.589 116.945 117.176 116.13 117.565C116.883 118.102 117.351 118.673 117.54 119.277C117.726 119.87 117.799 120.414 117.761 120.914C117.679 121.998 117.202 122.893 116.343 123.616C115.505 124.321 114.368 124.668 112.919 124.668C111.47 124.668 110.334 124.321 109.495 123.616C108.636 122.893 108.16 121.998 108.078 120.914C108.04 120.414 108.112 119.87 108.297 119.277C108.485 118.673 108.953 118.14 109.707 117.681C108.88 117.216 108.231 116.589 107.762 115.793C107.281 114.977 106.993 114.044 106.905 112.984C106.767 111.334 107.207 109.869 108.256 108.615C109.341 107.319 110.95 106.655 113.056 106.655C115.161 106.655 116.723 107.319 117.715 108.615C118.675 109.869 119.072 111.334 118.933 112.984C118.845 114.044 118.554 114.977 118.066 115.793Z" fill="#4A0C0C"/>
<path d="M78.278 67.7033C77.5289 66.6101 77.1749 64.9047 77.2036 62.6028C77.2253 60.638 77.1696 59.3467 77.038 58.7091C76.828 57.7358 76.3311 57.0557 75.5543 56.6663C74.9326 56.3539 74.2941 56.2736 73.6397 56.4207C72.9917 56.5666 72.438 56.9622 71.9759 57.6077C71.3449 58.4886 71.2222 59.2562 71.6095 59.9191C71.8358 60.3052 72.332 60.7401 73.1084 61.2276L71.0395 64.0847C69.8999 63.3184 69.1345 62.5271 68.7262 61.7052C67.964 60.1749 68.2694 58.4691 69.6356 56.5461C70.7231 55.0162 71.9911 53.9879 73.4578 53.4596C74.9567 52.92 76.4293 52.9704 77.8843 53.6353C79.0303 54.1597 79.8194 54.9833 80.2344 56.1113C80.5178 56.8648 80.6586 57.9586 80.6533 59.3994L80.6501 61.1337C80.6473 62.2318 80.6693 63.0011 80.7147 63.4356C80.7608 63.8724 80.8839 64.2878 81.0853 64.6835L86.4262 57.5113L89.6748 58.9958L81.0325 70.4689C79.824 69.6822 78.9104 68.7599 78.278 67.7033Z" fill="#4A0C0C"/>
<path d="M143.097 48.9147L145.061 48.3397C145.648 49.2179 146.091 49.8226 146.388 50.1534C146.859 50.6791 147.387 51.0593 147.969 51.292C148.364 51.4503 148.804 51.5224 149.285 51.5082C149.57 51.4974 149.771 51.472 149.887 51.4325L151.301 53.7295L136.03 59.3704L134.002 56.1008L145.221 52.3595L143.097 48.9147Z" fill="#4A0C0C"/>
<path d="M148.667 67.5389L154.637 64.5438L146.314 63.733L148.667 67.5389ZM149.286 73.4629L148.196 71.7032L144.816 73.535L142.893 70.4352L146.341 68.7058L142.515 62.5234L145.208 61.3831L156.852 62.9174L158.741 65.9885L150.477 70.4671L151.54 72.1864L149.286 73.4629Z" fill="#4A0C0C"/>
<path d="M64.5687 101.159L63.8987 101.578C63.6625 100.918 63.4845 100.459 63.3667 100.205C63.1784 99.7984 62.9741 99.5015 62.7552 99.3162C62.6059 99.1901 62.4438 99.1305 62.2704 99.1381C62.1679 99.1447 62.0966 99.1628 62.0561 99.1934L61.4227 97.3527L66.9225 92.7875L67.6964 95.5877L63.7051 98.5008L64.5687 101.159Z" fill="#4A0C0C"/>
<path d="M64.2597 88.9522C63.7358 88.9509 63.0293 88.4121 62.1341 87.3354C61.3569 86.4035 60.8299 85.8311 60.5539 85.6175C60.1294 85.2972 59.7853 85.3146 59.5239 85.6639C59.315 85.9437 59.1997 86.3429 59.1763 86.8587C59.1533 87.3663 59.2441 87.9229 59.4469 88.5293C59.7208 89.3486 60.012 89.7755 60.3252 89.8196C60.5075 89.8446 60.744 89.7149 61.0388 89.4259L61.8751 92.0214C61.4304 92.4124 61.0257 92.5556 60.6543 92.4602C59.9602 92.2824 59.3249 91.343 58.7237 89.5961C58.2339 88.1744 57.9654 86.8367 57.9268 85.5773C57.886 84.2692 58.0927 83.2521 58.5606 82.5447C58.9316 81.9838 59.3831 81.8307 59.9119 82.0993C60.2645 82.2738 60.7369 82.7191 61.3268 83.4341L62.0287 84.2827C62.4682 84.8136 62.7771 85.1672 62.9555 85.3433C63.1343 85.5194 63.3155 85.6323 63.4996 85.682L61.3569 78.2813L62.4536 76.6217L65.7075 88.393C65.2326 88.8311 64.7517 89.0138 64.2597 88.9522Z" fill="#4A0C0C"/>
<path d="M85.5076 123.667L84.3541 123.977C83.793 123.494 83.3731 123.154 83.1021 122.965C82.6655 122.661 82.2115 122.434 81.7419 122.287C81.417 122.185 81.0747 122.133 80.715 122.13C80.5001 122.13 80.3522 122.14 80.2713 122.161L78.6068 120.704L87.9287 118.339L89.5578 120.148L83.4607 121.741L85.5076 123.667Z" fill="#4A0C0C"/>
<path d="M80.7213 113.456C81.1473 113.093 81.0437 112.571 80.3978 111.877C79.7353 111.165 78.9614 110.762 78.08 110.68C77.1883 110.598 76.0976 110.697 74.809 110.979C73.447 111.278 72.5543 111.617 72.1404 111.992C71.7279 112.365 71.9197 112.912 72.699 113.619C73.4587 114.309 74.2639 114.682 75.1229 114.753C75.9706 114.823 77.0276 114.71 78.2928 114.415C79.4906 114.136 80.2975 113.817 80.7213 113.456ZM68.618 110.286C68.928 109.358 70.0818 108.679 72.0577 108.266C74.0092 107.859 75.8337 107.906 77.5107 108.393C79.1387 108.865 80.6706 109.919 82.0815 111.496C83.4184 112.99 83.8709 114.096 83.4957 114.864C83.1257 115.621 82.1316 116.191 80.4957 116.587C78.8418 116.987 77.2642 117.032 75.7454 116.712C74.1851 116.384 72.577 115.508 70.8858 114.029C69.0971 112.466 68.3133 111.199 68.618 110.286Z" fill="#4A0C0C"/>
<path d="M91.4001 32.6288L92.5255 31.7558C93.1029 31.5126 93.5247 31.3289 93.7882 31.2058C94.2057 31.0106 94.6121 30.796 95.0012 30.5656C95.2616 30.4112 95.5166 30.2446 95.7631 30.0682C95.906 29.9652 96 29.8944 96.0468 29.8542L97.4503 29.2779L87.629 38.3856L84.2815 39.6407L93.6974 31.6992L91.4001 32.6288Z" fill="#4A0C0C"/>
<path d="M98.8328 32.4077C99.0548 32.5535 99.5553 32.4821 100.33 32.1845C101.111 31.8843 101.794 31.4995 102.348 31.0492C102.876 30.6206 103.205 30.197 103.343 29.7911C103.473 29.407 103.38 29.2105 103.082 29.1776C102.798 29.1466 102.368 29.2483 101.783 29.4811C101.203 29.7118 100.687 29.9857 100.22 30.3122C99.7354 30.6519 99.3396 31.0357 99.0275 31.4824C98.699 31.9528 98.6235 32.2701 98.8328 32.4077ZM101.281 28.851C101.461 28.8698 101.786 28.7859 102.255 28.5976C102.731 28.4057 103.127 28.1993 103.434 27.9834C103.732 27.7733 103.907 27.5907 103.964 27.4366C104.023 27.277 103.95 27.2052 103.753 27.2144C103.562 27.2236 103.264 27.3115 102.857 27.4774C102.457 27.641 102.118 27.8125 101.833 27.9965C101.541 28.1851 101.332 28.3698 101.206 28.5541C101.085 28.7319 101.107 28.8329 101.281 28.851ZM97.685 31.1957C98.289 30.7279 98.937 30.3076 99.6436 29.9208C99.2279 29.9475 99.0388 29.8797 99.0594 29.7243C99.0793 29.5769 99.1637 29.4185 99.3084 29.249C99.611 28.8955 100.111 28.51 100.802 28.0867C101.458 27.6848 102.231 27.3036 103.152 26.9254C104.084 26.5429 104.792 26.3174 105.29 26.2496C105.823 26.1772 106.098 26.2536 106.088 26.4982C106.084 26.6157 105.993 26.7822 105.81 27.0015C105.618 27.2322 105.207 27.5373 104.568 27.9169C105.176 27.8023 105.645 27.7944 105.972 27.9037C106.324 28.0219 106.517 28.2589 106.528 28.6351C106.548 29.2793 105.977 30.1466 104.709 31.2418C103.279 32.4778 101.3 33.6016 98.9704 34.4696C96.7093 35.3123 95.4281 35.4225 95.116 34.882C94.8443 34.4136 95.1798 33.6822 95.9953 32.7576C96.4759 32.2128 97.0391 31.696 97.685 31.1957Z" fill="#4A0C0C"/>
<path d="M132.941 32.8788L133.676 31.411L129.333 31.3327L132.941 32.8788ZM137.365 35.7771L135.61 35.0384L135.639 37.1958L131.597 35.5618L132.512 33.7356L125.653 30.8504L127.27 30.3419L133.635 30.8814L135.564 31.7412L135.595 34.016L137.107 34.6638L137.365 35.7771Z" fill="#4A0C0C"/>
<path d="M163.713 84.0959C163.368 84.1094 163.104 84.3658 162.92 84.8836C162.73 85.4165 162.698 86.0183 162.836 86.6861C162.978 87.3777 163.261 88.0107 163.683 88.569C164.157 89.197 164.577 89.4531 164.929 89.3356C165.272 89.2207 165.5 88.8537 165.619 88.2546C165.711 87.7885 165.715 87.2954 165.634 86.7747C165.521 86.0262 165.233 85.3688 164.769 84.7806C164.398 84.3102 164.049 84.0831 163.713 84.0959ZM167.396 93.0986C167.536 93.2826 167.7 93.3679 167.889 93.355C168.19 93.3139 168.367 92.9057 168.422 92.1585C168.498 91.1101 168.272 90.0565 167.765 88.9752C167.494 88.4008 167.083 87.725 166.536 86.9481C166.695 87.5212 166.793 88.0913 166.828 88.6608C166.863 89.2517 166.838 89.8682 166.748 90.5163C166.538 92.0196 166.081 93.0262 165.36 93.4248C164.59 93.8501 163.745 93.4693 162.879 92.276C162.033 91.1111 161.473 89.6016 161.207 87.8511C160.963 86.2434 161.181 84.7322 161.784 83.3665C162.35 82.0827 163.06 81.6624 163.937 81.9738C164.596 82.2101 165.327 82.8326 166.156 83.8602C166.65 84.4715 167.05 85.0064 167.355 85.4653C167.908 86.2957 168.364 87.1519 168.726 88.0446C169.046 88.8399 169.304 89.7006 169.498 90.6407C169.703 91.6342 169.797 92.6855 169.769 93.8142C169.726 95.6065 169.466 96.8995 168.968 97.5588C168.435 98.2646 167.754 98.1833 166.956 97.283L167.396 93.0986Z" fill="#4A0C0C"/>
<path d="M161.978 109.615L163.044 110.273C162.318 110.804 161.841 111.174 161.598 111.394C161.219 111.737 160.999 112.048 160.934 112.326C160.89 112.512 160.936 112.683 161.068 112.841C161.148 112.932 161.22 112.99 161.283 113.017L159.644 114.101L147.884 110.133L150.28 107.715L159.164 111.649L161.978 109.615Z" fill="#4A0C0C"/>
<path d="M145.869 115.724C145.111 115.856 144.551 116.085 144.203 116.406C143.871 116.714 143.871 116.98 144.19 117.205C144.495 117.42 145.019 117.564 145.747 117.639C146.523 117.719 147.199 117.694 147.796 117.569C148.386 117.444 148.836 117.261 149.154 117.013C149.417 116.809 149.533 116.608 149.497 116.409C149.447 116.101 148.999 115.871 148.119 115.722C147.372 115.595 146.616 115.594 145.869 115.724ZM150.962 118.071C151.121 118.088 151.339 118.075 151.616 118.031C152.067 117.957 152.448 117.812 152.768 117.591C153.257 117.255 153.28 116.958 152.807 116.696C152.532 116.546 152.013 116.385 151.221 116.21C151.34 116.413 151.34 116.621 151.226 116.834C151.114 117.041 150.899 117.26 150.582 117.492C149.923 117.976 149.075 118.329 148.007 118.57C146.92 118.814 145.793 118.899 144.583 118.818C143.292 118.731 142.258 118.482 141.506 118.05C140.685 117.578 140.655 116.906 141.51 116.026C142.493 115.015 144.215 114.399 146.504 114.243C148.19 114.131 149.903 114.28 151.561 114.654C152.453 114.855 153.111 115.031 153.56 115.187C154.317 115.45 154.798 115.734 155.033 116.037C155.222 116.285 155.25 116.556 155.127 116.849C155.009 117.132 154.705 117.433 154.22 117.752C153.541 118.201 152.813 118.528 152.015 118.746C151.209 118.966 150.409 119.066 149.591 119.044L150.962 118.071Z" fill="#4A0C0C"/>
</g>
</g>
<defs>
<linearGradient id="paint0_linear_23_508" x1="113.705" y1="143.436" x2="113.705" y2="16.2055" gradientUnits="userSpaceOnUse">
<stop stop-color="#862B80"/>
<stop offset="1" stop-color="#69004F"/>
</linearGradient>
<linearGradient id="paint1_linear_23_508" x1="113.705" y1="98.3492" x2="113.705" y2="36.2371" gradientUnits="userSpaceOnUse">
<stop stop-color="#862B80"/>
<stop offset="1" stop-color="#69004F"/>
</linearGradient>
<linearGradient id="paint2_linear_23_508" x1="113.705" y1="140.498" x2="113.705" y2="100.286" gradientUnits="userSpaceOnUse">
<stop stop-color="#862B80"/>
<stop offset="1" stop-color="#69004F"/>
</linearGradient>
<linearGradient id="paint3_linear_23_508" x1="143.689" y1="139.507" x2="143.689" y2="101.038" gradientUnits="userSpaceOnUse">
<stop stop-color="#862B80"/>
<stop offset="1" stop-color="#69004F"/>
</linearGradient>
<linearGradient id="paint4_linear_23_508" x1="163.293" y1="108.751" x2="163.293" y2="50.6321" gradientUnits="userSpaceOnUse">
<stop stop-color="#862B80"/>
<stop offset="1" stop-color="#69004F"/>
</linearGradient>
<linearGradient id="paint5_linear_23_508" x1="83.8874" y1="139.507" x2="83.8874" y2="101.038" gradientUnits="userSpaceOnUse">
<stop stop-color="#862B80"/>
<stop offset="1" stop-color="#69004F"/>
</linearGradient>
<linearGradient id="paint6_linear_23_508" x1="140.936" y1="47.665" x2="140.936" y2="19.9663" gradientUnits="userSpaceOnUse">
<stop stop-color="#862B80"/>
<stop offset="1" stop-color="#69004F"/>
</linearGradient>
<linearGradient id="paint7_linear_23_508" x1="86.285" y1="47.6652" x2="86.285" y2="19.9773" gradientUnits="userSpaceOnUse">
<stop stop-color="#862B80"/>
<stop offset="1" stop-color="#69004F"/>
</linearGradient>
<linearGradient id="paint8_linear_23_508" x1="64.2828" y1="108.751" x2="64.2828" y2="50.6321" gradientUnits="userSpaceOnUse">
<stop stop-color="#862B80"/>
<stop offset="1" stop-color="#69004F"/>
</linearGradient>
<linearGradient id="paint9_linear_23_508" x1="85.027" y1="97.5262" x2="85.027" y2="35.4536" gradientUnits="userSpaceOnUse">
<stop stop-color="#862B80"/>
<stop offset="1" stop-color="#69004F"/>
</linearGradient>
<linearGradient id="paint10_linear_23_508" x1="142.145" y1="97.5262" x2="142.145" y2="35.4536" gradientUnits="userSpaceOnUse">
<stop stop-color="#862B80"/>
<stop offset="1" stop-color="#69004F"/>
</linearGradient>
<clipPath id="clip0_23_508">
<rect width="227" height="158" fill="white" transform="translate(0.2052 0.820801)"/>
</clipPath>
</defs>
</svg>
