<svg width="50" height="47" viewBox="0 0 50 47" fill="none" xmlns="http://www.w3.org/2000/svg">
<path d="M9.79579 42.7551H39.8321L40.0004 4.0394H34.0434L32.8688 16.1571L31.1068 4.0394H9.79579V42.7551Z" fill="url(#paint0_linear_48_164)" stroke="#2B2A29" stroke-width="0.565273" stroke-miterlimit="22.9256"/>
<path d="M11.8663 16.1779L16.0788 19.8823L13.3231 18.5346L14.3984 20.2744L15.8341 21.2046L14.7885 20.9055L17.72 25.6481L17.6313 29.8193L18.8954 37.4778L18.9429 24.6996L19.7698 14.5051L18.5997 14.5189L20.2818 12.1661L16.7983 5.80359L13.8003 10.5671L16.0741 14.2409L13.2233 12.2412L11.8663 16.1779Z" fill="url(#paint1_linear_48_164)" stroke="#2B2A29" stroke-width="0.282637" stroke-miterlimit="22.9256"/>
<path d="M16.7311 6.16672L18.9324 27.5185" stroke="#2B2A29" stroke-width="0.135448" stroke-miterlimit="22.9256"/>
<path d="M36.8549 24.5399H24.4905V24.9659H36.8549V24.5399Z" fill="url(#paint2_linear_48_164)" stroke="#2B2A29" stroke-width="0.270896" stroke-miterlimit="22.9256"/>
<path d="M30.2574 21.6407H21.87V22.0666H30.2574V21.6407Z" fill="url(#paint3_linear_48_164)" stroke="#2B2A29" stroke-width="0.270896" stroke-miterlimit="22.9256"/>
<path d="M23.3793 30.7396C23.3793 38.6694 23.3793 38.6694 23.3793 38.6694H36.8549V30.7396H23.3793Z" fill="url(#paint4_linear_48_164)" stroke="#2B2A29" stroke-width="0.270896" stroke-miterlimit="22.9256"/>
<defs>
<linearGradient id="paint0_linear_48_164" x1="24.8981" y1="4.0394" x2="26.7052" y2="68.3208" gradientUnits="userSpaceOnUse">
<stop stop-color="#8F3B7B"/>
<stop offset="1" stop-color="#BF3C3C" stop-opacity="0"/>
</linearGradient>
<linearGradient id="paint1_linear_48_164" x1="16.074" y1="5.80359" x2="10.8545" y2="56.6939" gradientUnits="userSpaceOnUse">
<stop stop-color="#8F3B7B"/>
<stop offset="1" stop-color="#BF3C3C" stop-opacity="0"/>
</linearGradient>
<linearGradient id="paint2_linear_48_164" x1="30.6727" y1="24.5399" x2="30.6721" y2="25.2315" gradientUnits="userSpaceOnUse">
<stop stop-color="#8F3B7B"/>
<stop offset="1" stop-color="#BF3C3C" stop-opacity="0"/>
</linearGradient>
<linearGradient id="paint3_linear_48_164" x1="26.0637" y1="21.6407" x2="26.0628" y2="22.3322" gradientUnits="userSpaceOnUse">
<stop stop-color="#8F3B7B"/>
<stop offset="1" stop-color="#BF3C3C" stop-opacity="0"/>
</linearGradient>
<linearGradient id="paint4_linear_48_164" x1="30.1171" y1="30.7396" x2="29.9107" y2="43.611" gradientUnits="userSpaceOnUse">
<stop stop-color="#8F3B7B"/>
<stop offset="1" stop-color="#BF3C3C" stop-opacity="0"/>
</linearGradient>
</defs>
</svg>
